<?xml version="1.0" encoding="UTF-8" standalone="no"?>
<svg
   xmlns:dc="http://purl.org/dc/elements/1.1/"
   xmlns:cc="http://creativecommons.org/ns#"
   xmlns:rdf="http://www.w3.org/1999/02/22-rdf-syntax-ns#"
   xmlns:svg="http://www.w3.org/2000/svg"
   xmlns="http://www.w3.org/2000/svg"
   xmlns:sodipodi="http://sodipodi.sourceforge.net/DTD/sodipodi-0.dtd"
   xmlns:inkscape="http://www.inkscape.org/namespaces/inkscape"
   width="210mm"
   height="297mm"
   viewBox="0 0 210 297"
   version="1.1"
   id="svg8"
   inkscape:version="0.92.5 (2060ec1f9f, 2020-04-08)"
   sodipodi:docname="mushroom_1_ver2g.svg">
  <defs
     id="defs2">
    <inkscape:path-effect
       effect="spiro"
       id="path-effect919"
       is_visible="true"
       lpeversion="1" />
    <inkscape:path-effect
       effect="spiro"
       id="path-effect915"
       is_visible="true"
       lpeversion="1" />
    <inkscape:path-effect
       effect="spiro"
       id="path-effect911"
       is_visible="true"
       lpeversion="1" />
    <inkscape:path-effect
       effect="spiro"
       id="path-effect907"
       is_visible="true"
       lpeversion="1" />
    <inkscape:path-effect
       effect="spiro"
       id="path-effect903"
       is_visible="true"
       lpeversion="1" />
    <inkscape:path-effect
       effect="spiro"
       id="path-effect899"
       is_visible="true"
       lpeversion="1" />
    <inkscape:path-effect
       effect="spiro"
       id="path-effect833"
       is_visible="true"
       lpeversion="1" />
    <inkscape:path-effect
       effect="spiro"
       id="path-effect858"
       is_visible="true"
       lpeversion="1" />
  </defs>
  <sodipodi:namedview
     id="base"
     pagecolor="#ffffff"
     bordercolor="#666666"
     borderopacity="1.0"
     inkscape:pageopacity="0.0"
     inkscape:pageshadow="2"
     inkscape:zoom="0.022115978"
     inkscape:cx="-27141.112"
     inkscape:cy="-3564.8511"
     inkscape:document-units="mm"
     inkscape:current-layer="layer1"
     inkscape:document-rotation="0"
     showgrid="false"
     showborder="false"
     inkscape:window-width="1366"
     inkscape:window-height="704"
     inkscape:window-x="0"
     inkscape:window-y="27"
     inkscape:window-maximized="1" />
  <metadata
     id="metadata5">
    <rdf:RDF>
      <cc:Work
         rdf:about="">
        <dc:format>image/svg+xml</dc:format>
        <dc:type
           rdf:resource="http://purl.org/dc/dcmitype/StillImage" />
        <dc:title />
      </cc:Work>
    </rdf:RDF>
  </metadata>
  <g
     inkscape:label="Calque 1"
     inkscape:groupmode="layer"
     id="layer1">
    <g
       id="stem">
      <path
         inkscape:connector-curvature="0"
         sodipodi:nodetypes="cccssccc"
         d="m -7140.7239,593.95793 c 166.0035,2388.79647 412.4999,3163.59747 -280.4555,5127.27627 -45.652,236.0009 -76.8868,505.8205 38.4793,690.1639 71.4136,130.9791 179.7071,225.6167 309.0426,270.072 160.7163,55.2415 342.0804,28.9974 504.1946,-72.9585 162.114,-101.9562 291.6986,-271.2724 360.2462,-470.7013 194.5755,-1789.6262 -798.9082,-4178.5541 12.2228,-5803.09793 295.464,-616.7831 -765.9556,135.99575 -943.73,259.24556 z"
         style="fill:#c4d6ff;fill-opacity:1;stroke:none;stroke-width:89.99990082"
         id="path835-2" />
      <path
         sodipodi:nodetypes="ccsccccc"
         inkscape:connector-curvature="0"
         d="m -6989.0361,2604.7743 c 0,0 44.2199,549.8442 22.5873,1002.803 54.7583,-35.8081 125.4317,-109.1947 216.6476,-239.5826 115.5024,-165.1041 49.3287,242.0506 49.3287,242.0506 0,0 256.9261,307.3897 271.3164,-168.1742 1.9534,-64.5603 5.4168,-111.5868 9.8327,-145.15 -43.75,-349.9218 -37.0818,-692.7369 -37.0818,-692.7369 z"
         style="fill:#87a8f4;fill-opacity:1;stroke:none;stroke-width:89.99990082"
         id="path835" />
      <path
         sodipodi:nodetypes="ccccc"
         inkscape:connector-curvature="0"
         d="m -7140.7239,593.95793 c 0,0 26.9163,369.74738 40.6251,540.73477 156.7766,48.323 368.9108,88.2413 632.3335,80.7594 42.9505,-275.42193 225.8563,-785.94204 225.8563,-785.94204 z"
         style="fill:#87a8f4;fill-opacity:1;stroke:none;stroke-width:0.26458299px;stroke-linecap:butt;stroke-linejoin:miter;stroke-opacity:1"
         id="path841" />
      <path
         inkscape:connector-curvature="0"
         sodipodi:nodetypes="csscscscscscsscc"
         id="path872"
         d="m -7054.9033,1676.993 c 0,0 24.0645,872.8812 -535.2763,945.7356 -559.3406,72.8544 -249.4591,367.7789 301.2278,154.621 492.3295,-190.569 132.4375,148.9959 132.4375,148.9959 0,0 11.0227,499.1731 404.7718,-63.6685 115.5022,-165.1039 49.3287,242.0508 49.3287,242.0508 0,0 256.9261,307.3898 271.3163,-168.1741 11.7679,-388.9035 78.2768,-142.1665 78.2768,-142.1665 0,0 15.8041,451.2189 220.781,259.3159 204.9771,-191.903 -62.9209,-456.0129 -62.9209,-456.0129 0,0 221.5338,421.8325 493.8152,232.7041 112.3668,-78.0507 -243.5023,-325.3305 -243.5023,-325.3305 0,0 -135.1699,-66.8962 298.6517,133.3553 202.395,93.4252 431.9407,-172.19 221.2555,-247.0928 -548.8074,-195.1121 -1160.3291,-307.4512 -1088.7281,-758.5459 58.8746,-370.9167 -541.4347,44.2126 -541.4347,44.2126 z"
         style="fill:#c4d6ff;fill-opacity:1;stroke:none;stroke-width:0.26458299px;stroke-linecap:butt;stroke-linejoin:miter;stroke-opacity:1" />
    </g>
    <g
       id="cap">
      <path
         inkscape:connector-curvature="0"
         id="path831-9-5"
         d="m -5396.7711,-63.67051 c -265.5638,-266.42138 -288.7216,-655.36608 -397.5427,-994.92539 -96.1236,-315.4071 -406.9678,-504.9164 -716.2959,-563.147 -364.0436,-90.8263 -821.2325,-20.1548 -1030.9875,323.3636 -200.6365,336.62179 -98.5794,806.55291 -413.7898,1082.79422 -272.6567,243.680511 -711.5184,267.212937 -898.9389,610.1519 -139.3348,229.8483 52.2331,526.87329 309.5879,538.55821 374.2398,43.56427 686.2041,-242.37856 1055.3515,-250.24992 363.4043,-22.80734 728.4679,26.72806 1091.0846,-22.554 346.5303,-36.62526 719.5338,-21.35456 1016.8782,182.22044 202.0599,124.94963 482.2643,254.67185 701.0911,93.70922 181.0388,-133.25762 116.4279,-404.31363 -37.713,-530.0612 -205.797,-185.18415 -485.9626,-267.27898 -678.7255,-469.86008 z"
         style="fill:#7ab6fd;fill-opacity:1;stroke:none;stroke-width:0.123427px;stroke-linecap:butt;stroke-linejoin:miter;stroke-opacity:1" />
    </g>
    <g
       id="spots">
      <path
         id="path81"
         d="m -6491.2533,-1619.1508 c 0,0 1.3525,162.3515 20.3972,279.8067 37.4628,231.0449 390.6273,62.4875 332.7035,-143.5812 -36.6245,-20.1347 -107.7091,-62.5807 -180.8314,-88.7991 -73.1223,-26.2184 -172.2693,-47.4264 -172.2693,-47.4264 z"
         style="fill:#2c89f9;fill-opacity:1;stroke:none;stroke-width:0.123427px;stroke-linecap:butt;stroke-linejoin:miter;stroke-opacity:1"
         inkscape:connector-curvature="0" />
      <path
         id="path79"
         d="m -5914.172,-1285.9828 c -196.6993,128.5535 -467.1108,190.9337 -561.1012,432.61495 -104.2464,221.18059 59.847,488.05115 292.024,531.05501 192.9661,48.53647 393.762,-18.42796 558.7985,-118.34368 -109.9183,-276.95241 -104.0889,-600.30938 -289.7213,-845.32628 z"
         style="fill:#2c89f9;fill-opacity:1;stroke:none;stroke-width:0.123427px;stroke-linecap:butt;stroke-linejoin:miter;stroke-opacity:1"
         inkscape:connector-curvature="0" />
      <path
         id="path77"
         d="m -7491.198,-1370.4044 c -237.9904,298.2986 -150.4608,722.95882 -358.8513,1035.36375 350.6161,65.82825 743.3129,-262.73682 671.9174,-629.88246 -35.1968,-175.32459 -172.9309,-306.16899 -313.0661,-405.48129 z"
         style="fill:#2c89f9;fill-opacity:1;stroke:none;stroke-width:0.123427px;stroke-linecap:butt;stroke-linejoin:miter;stroke-opacity:1"
         inkscape:connector-curvature="0" />
      <path
         id="path75"
         d="m -5508.8699,-206.10268 c -167.8564,25.34471 -391.7119,137.96059 -351.5549,340.32365 24.9532,172.72057 317.6479,250.64394 372.3742,81.06856 59.4835,-184.31613 110.2611,-262.73854 110.2611,-262.73854 0,0 -106.5834,-120.49965 -131.0804,-158.65367 z"
         style="fill:#2c89f9;fill-opacity:1;stroke:none;stroke-width:0.123427px;stroke-linecap:butt;stroke-linejoin:miter;stroke-opacity:1"
         inkscape:connector-curvature="0" />
      <path
         id="path73"
         d="m -5334.3765,-5.1513054 c -38.8819,39.1423624 -42.9182,101.9933484 -22.1463,150.6866354 20.7719,48.69328 66.3519,83.22887 126.7024,65.74043 101.0124,-42.70819 82.0373,-84.56401 82.0373,-84.56401 0,0 -155.2565,-90.791003 -186.5934,-131.8630554 z"
         style="fill:#2c89f9;fill-opacity:1;stroke:none;stroke-width:0.123427px;stroke-linecap:butt;stroke-linejoin:miter;stroke-opacity:1"
         inkscape:connector-curvature="0" />
      <path
         id="path71"
         d="m -4923.9641,258.77045 c -159.6686,80.1071 -128.7713,343.69702 45.0639,384.75527 105.5683,49.2615 332.6215,-81.48268 206.4633,-189.39596 -69.4101,-81.63366 -160.2784,-141.01917 -251.5272,-195.35931 z"
         style="fill:#2c89f9;fill-opacity:1;stroke:none;stroke-width:0.123427px;stroke-linecap:butt;stroke-linejoin:miter;stroke-opacity:1"
         inkscape:connector-curvature="0" />
      <path
         id="path69"
         d="m -7182.8728,-351.81269 c -188.7004,-35.81234 -289.0777,169.35622 -445.566,233.25122 -135.735,71.650139 -299.6366,69.433996 -427.9164,-24.55805 -79.5907,67.804387 -317.4826,164.742895 -317.4826,164.742895 0,0 269.4295,155.659425 387.6856,240.240805 213.0922,136.5761 484.2772,27.78035 648.7715,-135.04502 95.2953,-105.598904 243.6239,-199.527177 252.0124,-354.7328 -0.5398,-57.74006 -41.4625,-109.73956 -97.5045,-123.89905 z"
         style="fill:#2c89f9;fill-opacity:1;stroke:none;stroke-width:0.123427px;stroke-linecap:butt;stroke-linejoin:miter;stroke-opacity:1"
         inkscape:connector-curvature="0" />
      <path
         id="path67"
         d="m -7148.8277,289.36304 c -212.7593,-62.60245 -298.0285,390.30404 -298.0285,390.30404 0,0 166.4385,-4.0745 252.8771,3.0085 86.4386,7.083 205.3366,-6.95614 205.3366,-6.95614 0,0 -23.5841,-347.50555 -160.1852,-386.3564 z"
         style="fill:#2c89f9;fill-opacity:1;stroke:none;stroke-width:0.123427px;stroke-linecap:butt;stroke-linejoin:miter;stroke-opacity:1"
         inkscape:connector-curvature="0" />
      <path
         id="path831-9"
         d="m -8080.9592,522.08967 c -176.4886,-58.36577 -105.4883,365.86771 -105.4883,365.86771 0,0 118.9096,-39.55036 183.816,-67.83541 64.9064,-28.28505 134.847,-51.41571 134.847,-51.41571 0,0 -107.8037,-212.95399 -213.1747,-246.61659 z"
         style="fill:#2c89f9;fill-opacity:1;stroke:none;stroke-width:0.123427px;stroke-linecap:butt;stroke-linejoin:miter;stroke-opacity:1"
         inkscape:connector-curvature="0" />
      <path
         inkscape:connector-curvature="0"
         d="m -8144.7107,294.45582 a 168.37981,126.28485 16.354719 0 1 -197.1263,73.76204 168.37981,126.28485 16.354719 0 1 -126.0069,-168.58789 168.37981,126.28485 16.354719 0 1 197.1263,-73.76205 168.37981,126.28485 16.354719 0 1 126.0069,168.5879 z"
         style="fill:#2c89f9;fill-opacity:1;stroke:none;stroke-width:89.99990082"
         id="path921" />
      <path
         inkscape:connector-curvature="0"
         d="m -6577.7674,-1224.7408 a 201.12032,191.7659 16.354719 0 1 -246.9804,127.3743 201.12032,191.7659 16.354719 0 1 -138.9842,-240.6385 201.12032,191.7659 16.354719 0 1 246.9804,-127.3744 201.12032,191.7659 16.354719 0 1 138.9842,240.6386 z"
         style="fill:#2c89f9;fill-opacity:1;stroke:none;stroke-width:89.99990082"
         id="path923" />
      <path
         inkscape:connector-curvature="0"
         d="m -5973.8712,39.479996 a 257.24689,243.21526 16.354719 0 1 -315.3232,160.937584 257.24689,243.21526 16.354719 0 1 -178.3525,-305.81041 257.24689,243.21526 16.354719 0 1 315.3232,-160.93757 257.24689,243.21526 16.354719 0 1 178.3525,305.810396 z"
         style="fill:#2c89f9;fill-opacity:1;stroke:none;stroke-width:69.75509644"
         id="path925" />
      <path
         inkscape:connector-curvature="0"
         d="m -8349.051,658.56789 a 196.4431,168.37981 16.354719 0 1 -235.9073,106.25154 196.4431,168.37981 16.354719 0 1 -141.0815,-216.8817 196.4431,168.37981 16.354719 0 1 235.9073,-106.2515 196.4431,168.37981 16.354719 0 1 141.0815,216.88166 z"
         style="fill:#2c89f9;fill-opacity:1;stroke:none;stroke-width:89.99990082"
         id="path931" />
      <path
         inkscape:connector-curvature="0"
         d="m -5277.1019,626.71023 a 126.28485,187.08867 81.622297 0 1 -203.4918,-97.67887 126.28485,187.08867 81.622297 0 1 166.6929,-152.19569 126.28485,187.08867 81.622297 0 1 203.4917,97.67877 126.28485,187.08867 81.622297 0 1 -166.6928,152.19579 z"
         style="fill:#2c89f9;fill-opacity:1;stroke:none;stroke-width:89.99990082"
         id="path933" />
      <path
         inkscape:connector-curvature="0"
         d="m -6905.2107,-579.73202 a 107.57598,154.34814 6.4341408 0 1 -124.1949,141.32093 107.57598,154.34814 6.4341408 0 1 -89.602,-165.43109 107.57598,154.34814 6.4341408 0 1 124.1949,-141.32083 107.57598,154.34814 6.4341408 0 1 89.602,165.43099 z"
         style="fill:#2c89f9;fill-opacity:1;stroke:none;stroke-width:89.99990082"
         id="path935" />
      <path
         inkscape:connector-curvature="0"
         d="m -5752.977,458.36722 a 149.67093,130.96207 0 0 1 -149.6709,130.96206 149.67093,130.96207 0 0 1 -149.671,-130.96206 149.67093,130.96207 0 0 1 149.671,-130.96207 149.67093,130.96207 0 0 1 149.6709,130.96207 z"
         style="fill:#2c89f9;fill-opacity:1;stroke:none;stroke-width:89.99990082"
         id="path978" />
    </g>
  </g>
</svg>
