<?xml version="1.0" encoding="UTF-8" standalone="no"?>
<svg
   xmlns:dc="http://purl.org/dc/elements/1.1/"
   xmlns:cc="http://creativecommons.org/ns#"
   xmlns:rdf="http://www.w3.org/1999/02/22-rdf-syntax-ns#"
   xmlns:svg="http://www.w3.org/2000/svg"
   xmlns="http://www.w3.org/2000/svg"
   xmlns:sodipodi="http://sodipodi.sourceforge.net/DTD/sodipodi-0.dtd"
   xmlns:inkscape="http://www.inkscape.org/namespaces/inkscape"
   width="210mm"
   height="297mm"
   viewBox="0 0 210 297"
   version="1.1"
   id="svg8"
   inkscape:version="0.92.5 (2060ec1f9f, 2020-04-08)"
   sodipodi:docname="mushroom_2_colour_2g.svg">
  <defs
     id="defs2">
    <inkscape:path-effect
       effect="spiro"
       id="path-effect979"
       is_visible="true"
       lpeversion="1" />
    <inkscape:path-effect
       effect="spiro"
       id="path-effect933"
       is_visible="true"
       lpeversion="1" />
    <inkscape:path-effect
       effect="spiro"
       id="path-effect888"
       is_visible="true"
       lpeversion="1" />
    <inkscape:path-effect
       effect="spiro"
       id="path-effect884"
       is_visible="true"
       lpeversion="1" />
    <inkscape:path-effect
       effect="spiro"
       id="path-effect880"
       is_visible="true"
       lpeversion="1" />
    <inkscape:path-effect
       effect="spiro"
       id="path-effect876"
       is_visible="true"
       lpeversion="1" />
    <inkscape:path-effect
       effect="spiro"
       id="path-effect872"
       is_visible="true"
       lpeversion="1" />
    <inkscape:path-effect
       effect="spiro"
       id="path-effect868"
       is_visible="true"
       lpeversion="1" />
    <inkscape:path-effect
       effect="spiro"
       id="path-effect864"
       is_visible="true"
       lpeversion="1" />
    <inkscape:path-effect
       effect="spiro"
       id="path-effect860"
       is_visible="true"
       lpeversion="1" />
    <inkscape:path-effect
       effect="spiro"
       id="path-effect856"
       is_visible="true"
       lpeversion="1" />
    <inkscape:path-effect
       effect="spiro"
       id="path-effect837"
       is_visible="true"
       lpeversion="1" />
    <inkscape:path-effect
       effect="spiro"
       id="path-effect833"
       is_visible="true"
       lpeversion="1" />
    <inkscape:path-effect
       effect="spiro"
       id="path-effect858"
       is_visible="true"
       lpeversion="1" />
  </defs>
  <sodipodi:namedview
     id="base"
     pagecolor="#ffffff"
     bordercolor="#666666"
     borderopacity="1.0"
     inkscape:pageopacity="0.0"
     inkscape:pageshadow="2"
     inkscape:zoom="0.014142136"
     inkscape:cx="-25565.194"
     inkscape:cy="-19328.506"
     inkscape:document-units="mm"
     inkscape:current-layer="layer1"
     inkscape:document-rotation="0"
     showgrid="false"
     showborder="false"
     inkscape:window-width="1366"
     inkscape:window-height="704"
     inkscape:window-x="0"
     inkscape:window-y="27"
     inkscape:window-maximized="1" />
  <metadata
     id="metadata5">
    <rdf:RDF>
      <cc:Work
         rdf:about="">
        <dc:format>image/svg+xml</dc:format>
        <dc:type
           rdf:resource="http://purl.org/dc/dcmitype/StillImage" />
        <dc:title />
      </cc:Work>
    </rdf:RDF>
  </metadata>
  <g
     inkscape:label="Calque 1"
     inkscape:groupmode="layer"
     id="layer1">
    <g
       id="stem">
      <path
         transform="scale(0.26458333)"
         id="path839-5-7"
         d="m -16527.061,18722.52 c 1206.02,4073.073 3498.369,14467.413 -1511.947,22414.437 -870.736,1143.198 -54.928,2873.033 988.588,3774.768 906.115,733.198 2149.78,1164.283 3457.408,1198.435 1307.628,34.156 2572.103,-331.426 3515.254,-1016.322 943.1518,-684.892 1487.7209,-1633.001 1513.9103,-2635.736 -68.2219,-732.783 -211.0228,-1413.921 -406.4531,-2055.707 C -10444.636,35615.816 -12923.241,21326.15 -8506.832,18722.52 Z"
         style="fill:#458ee6;fill-opacity:1;stroke:none;stroke-width:0.51109791px;stroke-linecap:butt;stroke-linejoin:miter;stroke-opacity:1"
         inkscape:connector-curvature="0" />
      <path
         id="path839-1"
         transform="scale(0.26458333)"
         d="m -16527.059,18722.52 c 343.672,1160.679 775.542,2834.588 1101.52,4818.992 1313.747,-480.28 2911.759,-832.551 4728.094,-762.475 353.369,-1897.963 1036.5176,-3376.14 2190.3942,-4056.517 z"
         style="fill:#1a66bf;fill-opacity:1;stroke:none;stroke-width:0.51109791px;stroke-linecap:butt;stroke-linejoin:miter;stroke-opacity:1"
         inkscape:connector-curvature="0" />
    </g>
    <g
       id="cap">
      <path
         inkscape:connector-curvature="0"
         inkscape:path-effect="#path-effect979"
         inkscape:original-d="m -3935.7203,783.10693 c 297.5679,-343.9409 1119.6222,-51.9219 1286.3469,-47.5674 166.7245,4.3545 561.5602,424.99867 852.4541,509.25157 290.8935,84.2529 262.1089,841.0365 525.2938,1122.9678 263.185,281.9311 190.7186,812.1171 508.5987,1244.2785 317.88,432.1613 -45.7329,197.2078 493.8182,256.3911 539.5506,59.1834 499.2651,220.4605 748.5451,344.2086 249.2801,123.7484 172.1209,315.6262 50.2895,664.1568 -121.8305,348.5305 -558.179,481.4271 -1490.0768,596.8707 -931.898,115.443 -1093.5956,-254.0196 -1640.3932,-381.0295 -546.7975,-127.0099 -639.8612,-16.712 -959.7917,-25.0681 -319.9305,-8.356 -1035.8566,297.6034 -1553.7847,446.4056 -517.9278,148.801 -733.7826,-46.22 -962.2634,69.559 -228.4808,115.779 -132.4763,-1315.6196 -703.9567,-1533.4569 -571.4802,-217.8375 349.0353,275.1554 584.1068,-92.9636 235.0719,-368.1189 75.2746,-119.7805 562.3667,-296.4426 487.0922,-176.662 124.5383,-452.1702 354.1965,-613.0101 229.6577,-160.8401 192.6496,-815.6315 354.0941,-1127.0547 161.4447,-311.4231 692.5879,-793.5557 990.1561,-1137.49677 z"
         sodipodi:nodetypes="sssssssssssssssssss"
         id="path835-6-1"
         d="m -3935.7203,783.10693 c 399.6526,-180.20983 866.4948,-173.74961 1286.3469,-47.5674 320.7718,96.40463 624.9611,263.4156 852.4541,509.25157 283.9524,306.8478 432.0644,715.4229 525.2938,1122.9678 50.8753,222.3972 87.7258,448.6096 158.6457,665.4486 70.9199,216.8391 179.3516,427.3572 349.953,578.8299 139.80402,124.1285 314.72176,202.7487 493.8182,256.3911 134.01559,40.1399 271.9630352,67.3822 403.44474,115.1729 131.48171,47.7907 258.92465,118.8307 345.10036,229.0357 71.87904,91.9218 111.20515,207.4893 117.5693,324.0042 6.36416,116.5148 -19.36537,233.7551 -67.2798,340.1526 -58.92525,130.8478 -151.05596,245.7723 -261.92443,336.885 -110.86848,91.1126 -240.166941,158.7461 -376.29619,204.1572 -272.25849,90.8221 -567.20806,92.5545 -851.85618,55.8285 -557.1259,-71.8817 -1086.8484,-285.4028 -1640.3932,-381.0295 -316.6581,-54.7038 -641.6456,-70.3222 -959.7917,-25.0681 -534.1511,75.9793 -1029.4616,319.2225 -1553.7847,446.4056 -314.2734,76.2321 -641.4604,110.3582 -962.2634,69.559 -188.976,-24.0337 -376.0859,-74.5631 -543.8665,-164.7807 -167.7807,-90.2177 -315.7709,-221.5959 -410.7736,-386.7142 -95.0027,-165.1183 -134.1884,-364.8806 -92.3012,-550.7166 20.9435,-92.918 61.7547,-181.5446 120.4743,-256.5406 58.7196,-74.9961 135.4169,-136.1416 222.5103,-174.7048 90.5284,-40.0842 190.0042,-55.3101 288.6151,-64.1424 98.611,-8.8322 197.9775,-11.7004 295.4917,-28.8212 212.0723,-37.2342 411.1025,-143.2101 562.3667,-296.4426 167.1052,-169.2796 273.0421,-389.4173 354.1965,-613.0101 134.4031,-370.3013 208.9319,-760.8373 354.0941,-1127.0547 94.9652,-239.5796 220.5621,-468.3968 385.3872,-666.5115 164.8252,-198.1148 369.8341,-365.04936 604.7689,-470.98527 z"
         style="fill:#1a549a;fill-opacity:1;stroke:none;stroke-width:0.13522799px;stroke-linecap:butt;stroke-linejoin:miter;stroke-opacity:1" />
    </g>
    <g
       id="spots">
      <path
         id="path46"
         d="m -2493.146,789.29569 c -178.791,184.10266 -15.9727,481.40441 213.1085,455.55861 194.0189,11.9089 316.9608,-158.7411 316.9608,-158.7411 0,0 -99.7817,-79.2038 -215.1044,-146.81287 -115.3227,-67.60903 -246.1864,-123.62329 -314.9649,-150.00464 z"
         style="fill:#4fd7ff;fill-opacity:1;stroke:none;stroke-width:0.13522799px;stroke-linecap:butt;stroke-linejoin:miter;stroke-opacity:1"
         inkscape:connector-curvature="0" />
      <path
         id="path44"
         d="m -4094.134,870.84923 c -224.4114,135.06887 -413.3414,324.48557 -561.1258,539.81527 201.8345,294.0703 760.9201,213.0446 809.3473,-161.1388 20.1892,-165.9123 -98.616,-319.61806 -248.2215,-378.67647 z"
         style="fill:#4fd7ff;fill-opacity:1;stroke:none;stroke-width:0.13522799px;stroke-linecap:butt;stroke-linejoin:miter;stroke-opacity:1"
         inkscape:connector-curvature="0" />
      <path
         id="path42"
         d="m -1801.4282,1243.9896 c -255.6011,158.7743 -503.8274,433.5904 -436.6686,757.677 47.3099,324.5271 422.7958,529.6839 723.6232,402.4256 323.0678,-42.9912 168.9862,-333.881 90.8628,-537.8833 -89.0328,-226.8025 -210.6355,-443.53 -377.8174,-622.2193 z"
         style="fill:#4fd7ff;fill-opacity:1;stroke:none;stroke-width:0.13522799px;stroke-linecap:butt;stroke-linejoin:miter;stroke-opacity:1"
         inkscape:connector-curvature="0" />
      <path
         id="path40"
         d="m -4915.1167,1899.0727 c -126.3533,310.5165 -199.2836,638.7301 -299.0722,957.9803 310.3482,206.4615 516.485,544.1618 855.1157,709.1167 452.7568,211.0856 1027.5669,-64.6272 1174.1527,-535.6048 189.4552,-516.1541 -150.5853,-1121.5331 -670.695,-1270.3368 -379.678,-89.397 -1003.9956,-100.299 -1059.5012,138.8446 z"
         style="fill:#4fd7ff;fill-opacity:1;stroke:none;stroke-width:0.13522799px;stroke-linecap:butt;stroke-linejoin:miter;stroke-opacity:1"
         inkscape:connector-curvature="0" />
      <path
         id="path38"
         d="m -1950.5404,2985.5741 c -270.622,-26.8935 -596.6289,177.0466 -558.6854,476.8271 65.9362,349.593 489.3609,381.4948 776.8728,357.3111 386.4668,-24.7767 786.90328,59.7448 1160.4061,-70.3569 -221.4621,-115.3074 -383.04491,-320.9225 -478.8226,-548.2159 -307.7625,-38.2473 -586.6738,-207.0742 -899.7709,-215.5654 z"
         style="fill:#4fd7ff;fill-opacity:1;stroke:none;stroke-width:0.13522799px;stroke-linecap:butt;stroke-linejoin:miter;stroke-opacity:1"
         inkscape:connector-curvature="0" />
      <path
         id="path36"
         d="m -5326.4718,3173.1522 c -95.4736,233.1422 -232.8354,458.8835 -441.7242,606.788 223.5173,193.8999 695.6312,206.202 752.0177,-153.0084 28.5378,-204.5448 -127.4774,-386.1162 -310.2935,-453.7796 z"
         style="fill:#4fd7ff;fill-opacity:1;stroke:none;stroke-width:0.13522799px;stroke-linecap:butt;stroke-linejoin:miter;stroke-opacity:1"
         inkscape:connector-curvature="0" />
      <path
         id="path835-1"
         d="m -2803.7899,4469.5356 c -293.6077,-6.13 -434.1866,323.3271 -410.69,576.2167 351.2075,-5.4866 699.7848,56.1205 1038.5754,144.4038 -13.6572,-330.708 -287.2073,-687.5938 -627.8854,-720.6205 z"
         style="fill:#4fd7ff;fill-opacity:1;stroke:none;stroke-width:0.13522799px;stroke-linecap:butt;stroke-linejoin:miter;stroke-opacity:1"
         inkscape:connector-curvature="0" />
      <path
         inkscape:connector-curvature="0"
         id="path870-2"
         d="m -823.2973,4169.4902 c -205.5628,-7.491 -425.556,-11.4842 -609.6854,94.5649 -140.6475,77.8358 -247.9426,235.3042 -225.3216,400.6591 16.7031,151.5183 153.733,262.4606 296.7431,291.5694 206.0248,45.9732 412.10984,-22.1388 616.11316,-47.3131 182.66212,-27.7275 379.37023,-60.8767 520.57048,-190.3667 84.64947,-75.2135 124.01663,-203.0987 75.76287,-308.8373 -56.87282,-137.3046 -205.28898,-208.7124 -345.38637,-227.8054 -108.81031,-16.3831 -219.20859,-10.5482 -328.79624,-12.4709 z"
         style="fill:#4fd7ff;fill-opacity:1;stroke:none;stroke-width:0.13522799px;stroke-linecap:butt;stroke-linejoin:miter;stroke-opacity:1" />
      <path
         sodipodi:nodetypes="cccccc"
         inkscape:connector-curvature="0"
         id="path878-7"
         d="m -3677.7546,4176.1014 c -138.1717,-19.1651 -283.8819,57.1733 -344.4486,183.3604 -58.8874,114.8198 -39.3549,264.6771 50.0289,358.4938 89.5363,98.8274 244.5504,126.9785 364.2338,69.3811 122.1076,-54.3391 203.9129,-187.5042 194.182,-321.2515 -37.0764,-153.1538 -128.1691,-271.1318 -263.9961,-289.9838 z"
         style="fill:#4fd7ff;fill-opacity:1;stroke:none;stroke-width:0.13522799px;stroke-linecap:butt;stroke-linejoin:miter;stroke-opacity:1" />
      <path
         sodipodi:nodetypes="cccccccc"
         inkscape:connector-curvature="0"
         id="path886-0"
         d="m -6354.2559,4620.2379 c -1.2333,-123.1742 109.2763,-216.343 222.3634,-240.4142 155.6383,-35.8428 314.3016,6.0162 471.5362,2.2636 182.4803,2.0804 379.051,0.397 538.2358,103.1149 118.7491,73.0902 200.6642,220.6246 161.19,360.5746 -44.8855,166.6875 -208.036,271.7968 -369.7993,304.0445 -221.6079,46.3194 -447.8432,-25.6115 -643.2085,-128.0433 -162.7043,-118.0139 -375.9118,-205.4605 -380.3176,-401.5401 z"
         style="fill:#4fd7ff;fill-opacity:1;stroke:none;stroke-width:0.13522799px;stroke-linecap:butt;stroke-linejoin:miter;stroke-opacity:1" />
      <path
         d="m -5128.085,4287.0231 a 108.18243,81.136826 1.496121 0 1 -110.2641,78.2846 108.18243,81.136826 1.496121 0 1 -106.0274,-83.9337 108.18243,81.136826 1.496121 0 1 110.2643,-78.2846 108.18243,81.136826 1.496121 0 1 106.0272,83.9337 z"
         style="fill:#4fd7ff;fill-opacity:1;stroke:none;stroke-width:45.99879837"
         id="path890-8"
         inkscape:connector-curvature="0" />
      <path
         inkscape:connector-curvature="0"
         d="m -2453.3103,1384.2124 a 209.60347,189.31926 1.496121 0 1 -214.4749,183.7821 209.60347,189.31926 1.496121 0 1 -204.5891,-194.7273 209.60347,189.31926 1.496121 0 1 214.475,-183.7822 209.60347,189.31926 1.496121 0 1 204.589,194.7274 z"
         style="fill:#4fd7ff;fill-opacity:1;stroke:none;stroke-width:45.99879837"
         id="path892-7" />
      <path
         d="m -1890.4326,4209.7759 a 177.08722,135.74809 1.496121 0 1 -180.5712,131.0781 177.08722,135.74809 1.496121 0 1 -173.4828,-140.3253 177.08722,135.74809 1.496121 0 1 180.5713,-131.0782 177.08722,135.74809 1.496121 0 1 173.4827,140.3254 z"
         style="fill:#4fd7ff;fill-opacity:1;stroke:none;stroke-width:45.99879837"
         id="path894-3"
         inkscape:connector-curvature="0" />
    </g>
  </g>
</svg>
